<svg width="195.7" height="54.708" fill="none" version="1.1" xmlns="http://www.w3.org/2000/svg">
 <mask id="logo_svg__a" x="18" y="12" width="24" height="24" maskUnits="userSpaceOnUse">
  <path d="m23.965 12.01 1.025-0.01 10.681 4e-3c0.162 2e-3 0.263 4e-3 0.364 7e-3 0.53 0.014 1.063 0.045 1.587 0.138a5.384 5.384 0 0 1 1.509 0.491 5.063 5.063 0 0 1 2.218 2.194c0.247 0.477 0.402 0.966 0.498 1.491 0.094 0.518 0.125 1.046 0.14 1.57 6e-3 0.24 0.01 0.48 0.01 0.72l2e-3 0.429v9.48c0 0.286 0 0.571-2e-3 0.857 0 0.24-4e-3 0.48-0.01 0.72a10.34 10.34 0 0 1-0.14 1.57 5.233 5.233 0 0 1-0.498 1.492 5.012 5.012 0 0 1-0.933 1.27 5.07 5.07 0 0 1-1.285 0.923 5.384 5.384 0 0 1-1.509 0.492c-0.523 0.093-1.058 0.124-1.587 0.138l-1.596 0.012-10.112-6e-3a19.69 19.69 0 0 1-0.363-6e-3 10.685 10.685 0 0 1-1.588-0.138 5.382 5.382 0 0 1-1.508-0.492 5.062 5.062 0 0 1-2.22-2.193 5.258 5.258 0 0 1-0.497-1.492 10.326 10.326 0 0 1-0.139-1.57c-7e-3 -0.24-0.01-0.48-0.01-0.72l-2e-3 -0.428v-9.481c0-0.286 0-0.571 2e-3 -0.856 1e-3 -0.24 4e-3 -0.481 0.011-0.721 0.014-0.524 0.045-1.052 0.14-1.57a5.256 5.256 0 0 1 0.497-1.491 5.054 5.054 0 0 1 2.219-2.193 5.382 5.382 0 0 1 1.508-0.492 10.699 10.699 0 0 1 1.588-0.138z" clip-rule="evenodd" fill="#fff" fill-rule="evenodd"/>
 </mask>
 <g transform="matrix(2.2797 0 0 2.2797 -41.035 -27.356)" mask="url(#logo_svg__a)">
  <path d="m18 11.999h24v24h-24z" fill="#19aa1e"/>
  <g clip-rule="evenodd" fill-rule="evenodd">
   <path d="m18 11.999h24v7.875l-24-3.75z" fill="#ffb919"/>
   <path d="m18 33.374 24-3.75v6.375h-24z" fill="#82d714"/>
   <path d="m18 15.65 8.377 1.308c1.043-0.66 2.284-1.022 3.623-1.022 1.855 0 3.52 0.695 4.734 1.914 0.153 0.154 0.297 0.315 0.432 0.482l6.834 1.067v0.95l-6.14-0.96c0.456 0.875 0.703 1.85 0.703 2.846 0 1.286-0.288 2.568-0.883 3.855l-0.018 0.039-0.252 0.54h-0.597c-1.233 0-2.051 0.37-2.586 1.023-0.42 0.513-0.662 1.205-0.744 1.96l-3e-3 0.024-0.011 0.12-6e-3 0.053-0.01 0.102c-0.03 0.337-0.051 0.623-0.062 0.856l10.609-1.657v0.95l-24 3.75v-0.95l10.62-1.66-4e-3 -0.212-1e-3 -0.06-1e-3 -0.031-2e-3 -0.048a19.26 19.26 0 0 0-0.07-0.99l-8e-3 -0.076-0.013-0.132c-0.076-0.759-0.316-1.46-0.734-1.98-0.53-0.658-1.34-1.033-2.563-1.04h-0.634l-0.252-0.541c-0.607-1.3-0.9-2.595-0.9-3.894a6.235 6.235 0 0 1 1.93-4.485l-7.368-1.153v-0.949z" fill="#fff"/>
   <path d="m30 16.874c3.35 0 5.625 2.579 5.625 5.361 0 1.117-0.244 2.28-0.812 3.498-3.297 0-4.111 2.36-4.265 3.846l-0.01 0.1c-0.052 0.53-0.082 0.955-0.09 1.276l-0.893 0.14v-0.03a17.108 17.108 0 0 0-0.096-1.415l-3e-3 -0.026c-0.142-1.482-0.938-3.891-4.269-3.891-0.568-1.219-0.812-2.381-0.812-3.498 0-2.782 2.274-5.361 5.625-5.361z" fill="#0073fa"/>
  </g>
 </g>
 <path d="m87.613 9.1184c-8.0656 0-14.111 4.9105-14.061 13.439h7.4956c-0.10259-3.4104 2.0677-6.7183 6.5655-6.7183 3.4104 0 5.583 2.2729 5.583 5.1681 0 2.9978-2.3777 4.6506-6.2031 6.5131-5.0153 2.4302-8.0131 3.5677-13.441 5.3755v9.8209h27.913v-6.7183h-17.782a155.02 155.02 0 0 0 7.3931-3.3603c6.048-2.8952 9.6135-6.1506 9.6135-11.991 0-7.0306-5.2729-11.528-13.076-11.528zm25.225 7.238h14.474v-6.7206h-21.71v33.085h7.2358zm25.845-6.7206h-7.2358v33.085h7.1833l13.494-21.142v21.142h7.2358v-33.085h-7.2358l-13.441 21.142zm57.015 20.677h-7.4934c-1.1398 3.6703-4.6027 6.2008-8.6856 6.2008-5.9432 0-9.8209-5.1156-9.8209-10.336 0-5.2205 3.7729-10.338 10.028-10.338 4.1354 0 7.3406 2.5305 8.4782 6.2008h7.4934c-1.0851-7.3885-6.9257-12.921-16.179-12.921-10.236 0-17.057 7.1856-17.057 17.059 0 9.8711 6.8231 17.057 17.057 17.057 9.2533 0 15.094-5.4257 16.179-12.921z" clip-rule="evenodd" fill="currentColor" fill-rule="evenodd" stroke-width="2.2797"/>
</svg>
